<svg width="800" height="900" viewBox="0 0 800 900" xmlns="http://www.w3.org/2000/svg">
  <rect width="800" height="900" fill="#0f1116"/>
  <rect x="95" y="95" width="610" height="710" rx="28" fill="#1b1d24"/>
  <rect x="150" y="150" width="500" height="600" rx="22" fill="#262a33"/>
  <path d="M255 630C295 561 357 516 428 500C495 485 551 479 610 500L615 640C553 687 498 713 430 713C359 713 299 689 255 630Z" fill="#7c6b4c"/>
  <path d="M220 470C283 339 350 280 435 273C515 266 575 317 626 401L607 452C558 388 501 354 433 360C365 366 305 408 254 476L220 470Z" fill="#3a3e47"/>
</svg>
