<svg width="800" height="900" viewBox="0 0 800 900" xmlns="http://www.w3.org/2000/svg">
  <rect width="800" height="900" fill="#f0c783"/>
  <rect y="620" width="800" height="280" fill="#b96d2f"/>
  <path d="M100 625C220 489 325 432 430 440C541 449 610 518 700 650L700 760H100V625Z" fill="#8d4c20"/>
  <path d="M160 600C245 493 329 466 408 472C481 478 578 553 648 661L610 715C520 626 463 598 390 589C315 580 257 605 200 661L160 600Z" fill="#d59e4d"/>
  <path d="M170 300C250 260 323 262 400 320C465 370 522 400 634 401L582 487C477 488 420 469 350 434C287 403 222 405 156 440L170 300Z" fill="#7b3e1d"/>
</svg>
