<svg width="800" height="900" viewBox="0 0 800 900" xmlns="http://www.w3.org/2000/svg">
  <rect width="800" height="900" fill="#0b1b12"/>
  <rect y="670" width="800" height="230" fill="#213723"/>
  <path d="M130 690L250 430L370 690H130Z" fill="#2e4d2d"/>
  <path d="M260 690L380 350L500 690H260Z" fill="#3f6640"/>
  <path d="M430 690L550 300L670 690H430Z" fill="#27472a"/>
  <path d="M128 690C190 560 252 440 318 330C365 257 423 207 490 180C551 155 620 181 692 247L640 323C585 274 534 257 484 270C438 281 392 315 344 375C296 435 244 516 188 620L128 690Z" fill="#6f8d54"/>
</svg>
