<svg width="1600" height="1000" viewBox="0 0 1600 1000" fill="none" xmlns="http://www.w3.org/2000/svg">
  <rect width="1600" height="1000" fill="#070B14"/>
  <rect y="640" width="1600" height="360" fill="#101727"/>
  <path d="M0 710C176 590 308 538 483 573C618 603 746 725 900 731C1069 737 1226 615 1600 558V1000H0V710Z" fill="#1B2A3D"/>
  <path d="M0 750C200 618 333 590 500 626C674 663 816 794 987 788C1184 782 1361 626 1600 585V1000H0V750Z" fill="#2D3F5C"/>
  <circle cx="1210" cy="250" r="146" fill="#E3BE77" fill-opacity="0.95"/>
  <path d="M1040 336C1089 235 1184 171 1312 197C1422 220 1507 314 1528 400L1380 432C1365 372 1322 312 1238 302C1167 293 1112 324 1040 336Z" fill="#8B5F2C"/>
  <path d="M215 644C290 529 365 450 474 433C558 417 653 470 726 531C792 587 840 640 929 668C1024 697 1126 704 1218 653L1309 627C1225 756 1119 822 977 820C826 818 730 760 618 724C492 684 404 690 292 753L215 644Z" fill="#1A2340"/>
  <path d="M185 676C331 603 433 546 560 546C699 546 800 599 907 662C1001 717 1116 737 1266 666L1320 725C1225 808 1092 854 939 863C757 872 629 825 492 781C346 734 257 729 154 772L185 676Z" fill="#0F1726"/>
  <path d="M0 0H1600V260C1423 188 1296 166 1112 180C999 189 862 233 714 204C610 183 491 135 364 140C245 145 114 214 0 260V0Z" fill="#10213B"/>
  <path d="M117 132C178 126 220 98 267 87C332 71 385 62 458 83C549 111 612 151 681 159C762 168 799 146 875 112C960 75 1043 44 1134 46C1302 49 1400 116 1523 176L1494 254C1370 224 1275 195 1170 196C1028 197 876 259 738 260C617 261 516 220 418 210C343 202 280 208 201 233L117 132Z" fill="#C7A569" fill-opacity="0.9"/>
</svg>
