<svg width="800" height="900" viewBox="0 0 800 900" xmlns="http://www.w3.org/2000/svg">
  <rect width="800" height="900" fill="#0d2035"/>
  <path d="M0 620C110 515 220 472 338 496C462 521 560 618 700 640V900H0V620Z" fill="#1f4d6d"/>
  <path d="M0 680C140 595 287 570 420 606C520 633 626 701 800 744V900H0V680Z" fill="#3b6c95"/>
  <path d="M220 260C307 208 376 204 454 236C518 262 584 315 650 387L590 432C527 372 476 327 406 307C345 289 289 292 230 324L220 260Z" fill="#8ec7dc" fill-opacity="0.9"/>
  <path d="M120 430C202 360 310 353 390 390C480 433 571 486 685 506L655 600C541 580 446 535 365 497C292 462 208 455 120 501L120 430Z" fill="#16364e"/>
</svg>
